HIERARCHY
ROOT mixamorig_Hips
{
	OFFSET -0.000041 0.112915 0.215553
	CHANNELS 6 Xposition Yposition Zposition Xrotation Yrotation Zrotation
	JOINT mixamorig_Spine
	{
		OFFSET 0.000000 -0.008525 -0.108039
		CHANNELS 3 Xrotation Yrotation Zrotation
		JOINT mixamorig_Spine1
		{
			OFFSET 0.000000 -0.009946 -0.126046
			CHANNELS 3 Xrotation Yrotation Zrotation
			JOINT mixamorig_Spine2
			{
				OFFSET 0.000000 -0.011367 -0.144052
				CHANNELS 3 Xrotation Yrotation Zrotation
				JOINT mixamorig_Neck
				{
					OFFSET 0.000000 -0.012788 -0.162059
					CHANNELS 3 Xrotation Yrotation Zrotation
					JOINT mixamorig_Head
					{
						OFFSET 0.000000 -0.019313 -0.077391
						CHANNELS 3 Xrotation Yrotation Zrotation
						JOINT mixamorig_HeadTop_End
						{
							OFFSET 0.000000 -0.142419 -0.570699
							CHANNELS 3 Xrotation Yrotation Zrotation
							End Site
							{
								OFFSET 0.000000 -0.016881 -0.067645
							}
						}
					}
				}
				JOINT mixamorig_LeftShoulder
				{
					OFFSET 0.059117 -0.013497 -0.154003
					CHANNELS 3 Xrotation Yrotation Zrotation
					JOINT mixamorig_LeftArm
					{
						OFFSET 0.105067 -0.001420 0.016848
						CHANNELS 3 Xrotation Yrotation Zrotation
						JOINT mixamorig_LeftForeArm
						{
							OFFSET 0.311627 -0.003307 -0.007856
							CHANNELS 3 Xrotation Yrotation Zrotation
							JOINT mixamorig_LeftHand
							{
								OFFSET 0.267365 -0.006620 -0.009061
								CHANNELS 3 Xrotation Yrotation Zrotation
								End Site
								{
									OFFSET 0.069659 -0.001725 -0.002361
								}
							}
						}
					}
				}
				JOINT mixamorig_RightShoulder
				{
					OFFSET -0.059117 -0.012078 -0.154003
					CHANNELS 3 Xrotation Yrotation Zrotation
					JOINT mixamorig_RightArm
					{
						OFFSET -0.105067 0.001420 0.016849
						CHANNELS 3 Xrotation Yrotation Zrotation
						JOINT mixamorig_RightForeArm
						{
							OFFSET -0.311626 -0.007328 -0.007857
							CHANNELS 3 Xrotation Yrotation Zrotation
							JOINT mixamorig_RightHand
							{
								OFFSET -0.267364 -0.007689 -0.009061
								CHANNELS 3 Xrotation Yrotation Zrotation
								End Site
								{
									OFFSET -0.069651 -0.002003 -0.002361
								}
							}
						}
					}
				}
			}
		}
	}
	JOINT mixamorig_LeftUpLeg
	{
		OFFSET 0.086025 -0.002322 0.060046
		CHANNELS 3 Xrotation Yrotation Zrotation
		JOINT mixamorig_LeftLeg
		{
			OFFSET 0.005130 0.001862 0.314250
			CHANNELS 3 Xrotation Yrotation Zrotation
			JOINT mixamorig_LeftFoot
			{
				OFFSET 0.029099 0.003055 0.305414
				CHANNELS 3 Xrotation Yrotation Zrotation
				JOINT mixamorig_LeftToeBase
				{
					OFFSET 0.032406 0.158115 0.089037
					CHANNELS 3 Xrotation Yrotation Zrotation
					JOINT mixamorig_LeftToe_End
					{
						OFFSET 0.020098 0.068010 -0.003802
						CHANNELS 3 Xrotation Yrotation Zrotation
						End Site
						{
							OFFSET 0.019731 0.066766 -0.003732
						}
					}
				}
			}
		}
	}
	JOINT mixamorig_RightUpLeg
	{
		OFFSET -0.086024 0.004521 0.060047
		CHANNELS 3 Xrotation Yrotation Zrotation
		JOINT mixamorig_RightLeg
		{
			OFFSET -0.005129 0.001774 0.314251
			CHANNELS 3 Xrotation Yrotation Zrotation
			JOINT mixamorig_RightFoot
			{
				OFFSET -0.029099 0.004797 0.305414
				CHANNELS 3 Xrotation Yrotation Zrotation
				JOINT mixamorig_RightToeBase
				{
					OFFSET -0.032405 0.159308 0.089036
					CHANNELS 3 Xrotation Yrotation Zrotation
					JOINT mixamorig_RightToe_End
					{
						OFFSET -0.020098 0.066652 -0.003802
						CHANNELS 3 Xrotation Yrotation Zrotation
						End Site
						{
							OFFSET -0.020098 0.066652 -0.003802
						}
					}
				}
			}
		}
	}
}
MOTION
Frames: 5
Frame Time: 0.033333
-0.001918 0.738813 -0.000841 86.013733 1.268741 -34.634674 9.246439 3.946081 -12.679794 0.799282 -8.038242 -1.820868 1.023506 -8.037072 -1.698728 -5.386814 -7.503240 6.170769 -14.862666 14.454016 44.251710 -0.000002 -0.000001 -0.000000 0.059501 2.431524 -2.668838 63.537193 -17.814464 37.006016 1.914823 1.131841 80.942195 0.000002 0.000000 0.000002 -0.483793 -17.508847 -7.948423 11.166511 15.509760 -19.693515 0.519195 0.425181 -15.900149 0.000005 0.000000 -0.000000 -13.200340 6.283752 4.856055 31.679271 1.951055 8.028077 -15.884640 -5.952513 10.869138 -0.742230 -0.000015 0.000052 -0.000000 0.000000 0.000000 -8.267554 -7.360482 4.360152 31.172970 6.125289 11.371579 -17.667944 4.988095 22.114249 -2.467530 -0.000025 -0.000004 -0.000001 0.000001 0.000001 
-0.031192 0.725304 0.009936 84.051591 2.690670 -38.620693 14.236810 3.946198 -13.238942 1.610131 -8.410581 -1.959717 1.871622 -8.402115 -1.747898 -7.210232 -8.252410 7.317621 -18.053597 11.554453 50.196464 -0.000000 -0.000000 -0.000000 0.206590 0.782068 -1.336642 50.413671 -20.135113 32.026607 1.893440 1.021637 77.630052 0.000001 -0.000001 -0.000001 -0.232295 -15.941848 -5.478981 -22.941296 18.374310 -5.752328 0.069617 0.495308 -2.438765 0.000000 -0.000001 0.000001 -14.674871 7.236557 1.643829 34.847178 7.849679 7.530989 -15.832023 -11.386901 15.808176 -0.835969 -0.000023 0.000019 -0.000000 -0.000000 -0.000001 -9.563892 -5.803248 9.304320 40.047028 5.658117 11.959969 -22.715457 4.011163 20.144699 -1.543142 -0.000007 0.000032 -0.000000 0.000001 -0.000000 
-0.054583 0.706303 0.022993 79.440257 2.948643 -40.971819 17.724913 3.502762 -9.842501 1.460272 -5.824810 -1.505065 1.605071 -5.834066 -1.313500 -6.939918 -6.766259 7.272872 -20.830018 8.848131 47.477475 -0.000003 0.000000 0.000000 0.837665 -0.008647 3.558831 43.785396 -33.347873 32.293937 1.895000 1.028412 77.834759 0.000001 0.000003 0.000007 -0.001620 -13.514033 -1.736583 -29.418588 17.442841 -7.122438 0.249142 0.480266 -7.757523 0.000000 0.000001 -0.000001 -16.473332 12.342535 2.726188 43.081667 9.586263 8.235406 -19.684317 -14.094084 14.144559 -1.016502 -0.000024 0.000013 0.000000 -0.000000 0.000002 -8.717329 -1.453704 10.207677 47.105465 7.642530 12.455371 -27.941525 1.806449 21.178482 -1.494335 -0.000039 -0.000015 -0.000000 -0.000000 0.000003 
-0.064066 0.691102 0.030483 72.392069 2.837585 -37.338523 21.309934 5.192049 -6.517892 2.000544 -3.410118 -0.948137 2.058380 -3.416643 -0.793485 -6.855855 -4.419592 6.273393 -20.619199 7.621724 39.183730 -0.000001 0.000000 0.000000 1.661839 -3.252906 7.746957 32.118855 -43.119008 36.384705 1.938228 1.533374 92.832482 0.000001 -0.000001 0.000001 0.110180 -9.884712 0.257733 -29.545342 19.489105 -18.716393 0.469194 0.438437 -14.374253 0.000001 -0.000000 -0.000000 -14.800443 20.127147 -0.480230 53.527038 9.055050 8.233439 -26.356810 -10.305370 11.119695 -0.504489 -0.000039 0.000030 -0.000001 -0.000001 0.000002 -4.563259 3.150632 8.724937 50.335301 9.793238 12.746426 -30.287955 0.254065 18.794007 -1.063072 -0.000013 0.000010 -0.000001 0.000001 0.000003 
-0.059715 0.687703 0.030918 69.798304 2.096466 -28.405278 22.549685 6.457079 -3.126822 2.341113 -2.863829 -0.437983 2.368229 -2.863485 -0.291375 -7.841642 -3.196534 4.398896 -18.400996 6.391723 27.765484 -0.000001 0.000000 0.000000 1.756857 -2.914087 8.515163 16.727207 -37.940226 42.696090 1.883672 1.910146 104.086824 0.000001 -0.000001 0.000002 0.179173 -8.626650 -0.160639 -26.162620 22.168170 -29.365487 0.860103 0.294348 -26.694358 -0.000001 0.000001 0.000001 -9.237184 22.666908 -10.236971 58.219057 8.843196 6.024080 -30.597827 -5.812619 4.563684 -4.229169 -0.000044 0.000036 0.000000 -0.000002 0.000001 -3.584451 3.059913 7.616101 52.101366 8.294627 12.727290 -29.906366 1.055067 12.326933 -0.617496 -0.000010 -0.000006 -0.000000 0.000001 0.000001 
